<?xml version="1.0" encoding="UTF-8"?>
<!DOCTYPE svg PUBLIC "-//W3C//DTD SVG 1.1//EN" "http://www.w3.org/Graphics/SVG/1.1/DTD/svg11.dtd">
<!-- Creator: CorelDRAW X8 -->
<svg xmlns="http://www.w3.org/2000/svg" xml:space="preserve" width="340px" height="431px" version="1.1" style="shape-rendering:geometricPrecision; text-rendering:geometricPrecision; image-rendering:optimizeQuality; fill-rule:evenodd; clip-rule:evenodd"
viewBox="0 0 370 469"
 xmlns:xlink="http://www.w3.org/1999/xlink">
 <defs>
  <style type="text/css">
   <![CDATA[
    .str0 {stroke:#717171;stroke-width:1.64401}
    .fil6 {fill:none}
    .fil1 {fill:#39A5C6}
    .fil3 {fill:#42D652}
    .fil7 {fill:#717171}
    .fil2 {fill:#84E78C}
    .fil0 {fill:#8CBD42}
    .fil5 {fill:#DE6384}
    .fil4 {fill:#FFD629}
    .fnt0 {font-weight:bold;font-size:20.879px;font-family:'微軟正黑體'}
   ]]>
  </style>
 </defs>
 <g id="Taipei">
  <metadata id="CorelCorpID_0Corel-Layer"/>
  <path id="beitou" class="fil0" d="M181 0c2,3 3,7 5,11 0,4 -4,4 -5,7 2,5 6,8 12,9 -7,3 -4,12 -6,19 -1,6 -7,8 -10,12 6,5 2,14 1,23 -15,4 -14,22 -21,34 -10,-4 -17,7 -26,9 2,16 -4,23 -10,30 -1,4 2,5 2,9 -6,5 -9,13 -11,21 -6,1 -9,4 -10,9 -6,-1 -12,-3 -18,-4 -2,-11 -5,-21 -11,-28 -21,0 -32,14 -51,4 0,-6 0,-13 0,-19 2,0 5,0 7,0 0,-3 0,-6 0,-10 8,-12 18,-22 27,-34 3,0 7,0 10,0 2,-3 1,-10 1,-14 7,-9 23,-9 23,-24 6,0 16,4 26,2 5,-4 6,-12 7,-21 16,2 21,-7 32,-11 0,-5 0,-9 0,-14 3,0 7,0 11,0 -1,-12 3,-20 15,-20z"/>
  <path id="shilin" class="fil0" d="M211 25c-3,16 0,30 4,43 0,2 3,1 5,1 1,8 8,21 2,28 2,3 7,4 9,8 0,14 14,13 14,27 0,2 3,2 5,4 -8,12 -14,26 -31,29 -3,3 -5,7 -7,11 -18,-7 -20,13 -35,13 -7,8 -16,18 -30,13 -10,3 -13,14 -25,14 0,5 0,9 0,13 -10,-9 -24,-14 -36,-23 -11,-8 -17,-16 -33,-18 -5,-1 -11,0 -18,0 -4,-4 -8,-8 -13,-11 0,-3 0,-6 0,-10 20,10 29,-3 50,-3 4,8 9,14 9,26 6,3 14,3 21,6 2,-2 4,-6 6,-9 2,0 4,0 6,0 2,-9 4,-18 11,-22 -6,-17 14,-20 8,-39 8,-3 15,-12 25,-8 8,-11 6,-32 21,-36 1,-8 8,-19 1,-24 4,-3 6,-6 9,-9 -2,-18 8,-24 22,-24z"/>
  <path id="neihu" class="fil1" d="M278 188c-1,9 1,14 6,18 -1,17 -12,25 -17,39 -3,0 -5,0 -8,0 -2,1 0,6 -2,8 -6,2 -13,4 -22,4 0,-3 0,-6 -1,-7 -2,0 -3,0 -5,0 -3,12 -11,18 -28,15 6,-6 14,-11 16,-21 -7,0 -10,5 -18,4 -3,-5 1,-17 -2,-22 -4,1 -8,3 -13,4 0,-6 0,-11 0,-17 -1,-2 -5,-1 -7,-1 1,-7 -2,-10 -6,-13 1,-3 4,-5 6,-8 16,1 16,-19 36,-13 3,-3 5,-8 7,-11 17,-10 29,5 44,9 2,5 6,7 8,12 2,0 4,0 6,0z"/>
  <path id="chungshan" class="fil2" d="M175 216c-3,0 -7,0 -10,0 -1,2 2,7 3,10 -3,2 -10,0 -14,1 -2,15 -1,34 -1,51 -14,1 -26,-1 -37,-3 0,-16 2,-29 3,-43 2,0 2,2 5,1 0,-5 0,-9 0,-14 9,1 13,-12 23,-14 2,-1 7,1 10,1 8,-1 13,-9 17,-1 2,3 -2,6 1,11z"/>
  <path id="datung" class="fil3" d="M84 208c12,7 24,13 34,22 -3,14 -5,28 -4,45 -16,3 -25,-7 -37,-2 4,-20 6,-42 7,-65z"/>
  <path id="songshan" class="fil4" d="M178 214c0,0 1,0 1,0 4,3 1,13 2,19 6,0 8,-3 14,-4 1,7 -2,18 2,22 7,0 11,-3 16,-4 -3,9 -13,9 -15,19 2,2 10,-1 10,3 -14,1 -24,6 -31,14 -8,-2 -16,-3 -22,-5 0,-16 0,-32 0,-49 5,0 10,0 15,0 2,-3 -2,-6 -2,-10 3,0 6,0 10,0 0,-2 0,-4 0,-5z"/>
  <path id="nangang" class="fil1" d="M282 265c-3,0 -7,0 -10,0 -19,26 27,33 40,44 5,0 10,0 16,0 4,-3 9,-6 14,-2 0,3 0,6 0,8 -9,1 -21,-1 -26,3 -10,-5 -29,-4 -32,5 -17,1 -36,-3 -41,9 -13,-2 -26,6 -34,0 5,-10 13,-19 19,-29 -4,-3 -2,-10 -4,-14 -3,-5 -9,-6 -13,-10 1,-5 0,-9 -2,-12 14,2 19,-5 21,-14 5,-2 1,5 3,7 11,0 20,-2 27,-7 -2,-7 3,-7 6,-7 6,1 12,17 16,19z"/>
  <path id="wanhua" class="fil3" d="M95 276c-4,15 -18,38 3,42 0,6 -7,6 -10,9 -5,5 -8,14 -16,16 -10,-5 -14,-16 -20,-25 0,-11 0,-22 0,-33 11,-5 29,-16 43,-9z"/>
  <path id="xinyi" class="fil4" d="M209 273c-1,11 7,12 12,16 -2,8 3,9 4,14 -7,9 -12,19 -19,28 -9,0 -11,7 -18,8 -5,-9 -12,-16 -17,-25 2,-2 5,-3 7,-5 0,-8 0,-16 0,-25 8,-5 14,-14 31,-11z"/>
  <path id="chungcheng" class="fil2" d="M135 280c0,6 0,12 0,18 -4,0 -9,0 -13,0 -2,4 -3,9 -5,13 7,11 19,16 26,27 -4,1 -6,4 -10,5 -10,-8 -15,-21 -32,-21 0,-2 0,-5 0,-7 -21,-2 -6,-25 -4,-38 15,-1 25,2 38,3z"/>
  <path id="daan" class="fil5" d="M138 281c15,-1 27,1 38,4 0,13 2,27 -8,29 3,4 6,10 10,15 3,4 10,8 7,14 -4,-3 -8,-6 -14,-7 -2,-1 1,4 -1,3 -11,-1 -11,8 -23,5 0,-2 0,-4 0,-6 -9,-10 -18,-17 -27,-26 2,-4 3,-8 4,-13 4,0 9,0 13,0 2,-4 0,-12 1,-18z"/>
  <path id="wenshan" class="fil5" d="M237 334c0,4 0,7 0,11 9,6 3,27 14,32 -2,3 -5,4 -7,6 0,4 0,9 0,14 15,-1 23,6 29,14 -10,6 -23,10 -34,16 -2,-2 -4,-6 -5,-10 -10,6 -18,-5 -26,-4 -4,0 -6,5 -10,5 -6,1 -9,-3 -15,-2 -3,-12 -13,-16 -12,-31 -2,-3 -5,-4 -7,-6 -2,2 -4,5 -5,9 -3,0 -4,-2 -7,-3 1,-1 3,-2 3,-5 -2,-2 -6,-2 -8,-4 0,-4 0,-7 0,-11 -3,-1 -11,-7 -12,-1 -5,-3 0,-5 3,-8 -1,-3 -3,-6 -4,-10 2,-3 7,-4 11,-6 0,3 0,5 1,6 13,3 14,-5 25,-4 2,0 1,-2 1,-4 5,2 9,3 10,8 10,-3 20,-19 31,-8 8,-2 16,-2 24,-4z"/>
  <g id="beitou_0">
   <polyline class="fil6 str0" points="90,46 114,46 114,82 "/>
   <text x="46" y="54" id="text" class="fil7 fnt0">北</text>
   <text x="68" y="54" id="text" class="fil7 fnt0">投</text>
  </g>
  <g id="shilin_1">
   <line class="fil6 str0" x1="285" y1="83" x2="202" y2= "83" />
   <text x="293" y="90" id="text_2" class="fil7 fnt0">士</text>
   <text x="315" y="90" id="text_2" class="fil7 fnt0">林</text>
  </g>
  <g id="datung_3">
   <polyline class="fil6 str0" points="51,217 99,217 99,237 "/>
   <text x="7" y="226" id="text_4" class="fil7 fnt0">大</text>
   <text x="29" y="226" id="text_4" class="fil7 fnt0">同</text>
  </g>
  <g id="neihu_5">
   <line class="fil6 str0" x1="310" y1="184" x2="256" y2= "184" />
   <text x="316" y="191" id="text_6" class="fil7 fnt0">內</text>
   <text x="338" y="191" id="text_6" class="fil7 fnt0">湖</text>
  </g>
  <g id="chungshan_7">
   <line class="fil6 str0" x1="55" y1="256" x2="132" y2= "256" />
   <text x="11" y="265" id="text_8" class="fil7 fnt0">中</text>
   <text x="33" y="265" id="text_8" class="fil7 fnt0">山</text>
  </g>
  <g id="songshan_9">
   <line class="fil6 str0" x1="307" y1="241" x2="185" y2= "240" />
   <text x="314" y="249" id="text_10" class="fil7 fnt0">松</text>
   <text x="336" y="249" id="text_10" class="fil7 fnt0">山</text>
  </g>
  <g id="wanhua_11">
   <line class="fil6 str0" x1="45" y1="313" x2="71" y2= "313" />
   <text x="0" y="321" id="text_12" class="fil7 fnt0">萬</text>
   <text x="22" y="321" id="text_12" class="fil7 fnt0">華</text>
  </g>
  <g id="nanggang">
   <line class="fil6 str0" x1="307" y1="276" x2="256" y2= "276" />
   <text x="313" y="284" id="text_13" class="fil7 fnt0">南</text>
   <text x="335" y="284" id="text_13" class="fil7 fnt0">港</text>
  </g>
  <g id="chungcheng_14">
   <polyline class="fil6 str0" points="70,366 111,366 111,309 "/>
   <text x="25" y="374" id="text_15" class="fil7 fnt0">中</text>
   <text x="47" y="374" id="text_15" class="fil7 fnt0">正</text>
  </g>
  <g id="xinyi_16">
   <polyline class="fil6 str0" points="294,349 203,349 203,304 "/>
   <text x="302" y="358" id="text_17" class="fil7 fnt0">信</text>
   <text x="324" y="358" id="text_17" class="fil7 fnt0">義</text>
  </g>
  <g id="daan_18">
   <polyline class="fil6 str0" points="113,406 153,406 153,321 "/>
   <text x="69" y="415" id="text_19" class="fil7 fnt0">大</text>
   <text x="91" y="415" id="text_19" class="fil7 fnt0">安</text>
  </g>
  <g id="wenshan_20">
   <line class="fil6 str0" x1="237" y1="440" x2="236" y2= "382" />
   <text x="215" y="462" id="text_21" class="fil7 fnt0">文</text>
   <text x="237" y="462" id="text_21" class="fil7 fnt0">山</text>
  </g>
 </g>
</svg>
